<?xml version="1.0" encoding="utf-8"?>
<!-- Generator: Adobe Illustrator 19.1.0, SVG Export Plug-In . SVG Version: 6.00 Build 0)  -->
<svg version="1.1" id="Layer_1" xmlns="http://www.w3.org/2000/svg" xmlns:xlink="http://www.w3.org/1999/xlink" x="0px" y="0px"
	 viewBox="-585 293.4 636 54.9" style="enable-background:new -585 293.4 636 54.9;" xml:space="preserve">
<style type="text/css">
	.st0{display:none;}
	.st1{display:inline;}
	.st2{fill:#FFFFFF;}
	.st3{clip-path:url(#SVGID_2_);}
</style>
<g id="png" class="st0">
	<g id="xvfUKl.tif" class="st1">
		
			<image style="overflow:visible;enable-background:new    ;" width="212" height="20" id="Layer_0_1_" xlink:href="3505D48B54097296.png"  transform="matrix(0.9996 0 0 0.9996 -372.9544 310.8656)">
		</image>
	</g>
</g>
<g id="Layer_1_1_">
	<g>
		<path class="st2" d="M-417,337.2v-33.3h10.8c2.1,0,3.9,0.3,5.4,0.6c1.5,0.3,2.7,0.9,3.6,1.8c0.9,0.6,1.8,1.8,2.1,2.7
			c0.6,1.2,0.6,2.4,0.6,3.6c0,0.9,0,1.5-0.3,2.4s-0.6,1.5-1.2,2.1c-0.6,0.6-1.2,1.2-2.1,1.8s-1.8,0.9-2.7,1.2
			c2.4,0.6,4.2,1.5,5.7,2.7c1.2,1.2,1.8,3,1.8,5.1c0,1.5-0.3,2.7-0.9,3.9s-1.2,2.1-2.4,3c-0.9,0.9-2.4,1.5-3.6,1.8
			c-1.5,0.6-3.3,0.6-5.1,0.6H-417L-417,337.2z M-412.5,318.9h6c1.2,0,2.4,0,3.3-0.3c1.2-0.3,1.8-0.9,2.4-1.2
			c0.6-0.6,1.2-1.2,1.5-1.8c0.3-0.6,0.6-1.5,0.6-2.4c0-2.1-0.6-3.3-1.8-4.2c-1.2-0.9-3-1.5-5.7-1.5h-6.3V318.9L-412.5,318.9z
			 M-412.5,322.2v11.7h7.5c1.2,0,2.4,0,3.3-0.3c0.9-0.3,1.8-0.6,2.4-1.2s1.2-1.2,1.2-1.8c0.3-0.6,0.3-1.5,0.3-2.4
			c0-1.8-0.6-3-1.8-4.2c-1.2-0.9-3-1.5-5.7-1.5L-412.5,322.2L-412.5,322.2z"/>
		<path class="st2" d="M-297,323.4v13.8h-4.5v-33.3h9.6c2.1,0,3.9,0.3,5.4,0.6c1.5,0.3,3,0.9,3.9,1.8c0.9,0.9,1.8,1.8,2.4,3
			c0.6,1.2,0.6,2.4,0.6,3.9c0,1.2-0.3,2.4-0.6,3.3s-0.9,1.8-1.5,2.7c-0.6,0.9-1.5,1.5-2.7,2.1c-0.9,0.6-2.1,0.9-3.6,1.2
			c0.6,0.3,1.2,0.9,1.5,1.5l9.9,13.2h-4.2c-0.9,0-1.5-0.3-1.8-0.9l-8.7-12c-0.3-0.3-0.6-0.6-0.9-0.9c-0.3,0-0.6,0-1.5,0H-297
			L-297,323.4z M-297,320.1h4.8c1.2,0,2.4-0.3,3.6-0.6c0.9-0.3,1.8-0.9,2.7-1.2c0.9-0.3,1.2-1.2,1.5-2.1c0.3-0.9,0.6-1.8,0.6-2.7
			c0-2.1-0.6-3.6-2.1-4.5c-1.2-0.9-3.3-1.5-6-1.5h-5.1V320.1z"/>
		<path class="st2" d="M-240.6,323.4v13.8h-4.5v-33.3h9.6c2.1,0,3.9,0.3,5.4,0.6c1.5,0.3,3,0.9,3.9,1.8s1.8,1.8,2.4,3
			c0.6,1.2,0.6,2.4,0.6,3.9c0,1.2-0.3,2.4-0.6,3.3s-0.9,1.8-1.5,2.7c-0.6,0.9-1.5,1.5-2.7,2.1c-1.2,0.6-2.1,0.9-3.6,1.2
			c0.6,0.3,1.2,0.9,1.5,1.5l9.9,13.2h-4.2c-0.9,0-1.5-0.3-1.8-0.9l-8.7-12c-0.3-0.3-0.6-0.6-0.9-0.9c-0.3-0.3-0.9-0.3-1.5-0.3h-3.3
			V323.4z M-240.6,320.1h4.8c1.2,0,2.4-0.3,3.6-0.6c1.2-0.3,1.8-0.9,2.7-1.2s1.2-1.2,1.5-2.1c0.3-0.9,0.6-1.8,0.6-2.7
			c0-2.1-0.6-3.6-2.1-4.5c-1.2-0.9-3.3-1.5-6-1.5h-5.1V320.1L-240.6,320.1z"/>
		<path class="st2" d="M-183.6,337.2h-4.5v-33.3h4.5V337.2z"/>
		<path class="st2" d="M-124.5,330.3c0.3,0,0.6,0,0.6,0.3l1.8,1.8c-1.5,1.5-3,2.7-5.1,3.6s-4.2,1.2-7.2,1.2c-2.4,0-4.5-0.3-6.6-1.2
			s-3.6-2.1-5.1-3.6s-2.4-3.3-3.3-5.4s-1.2-4.5-1.2-6.9c0-2.4,0.3-4.8,1.2-6.9c0.9-2.1,2.1-3.9,3.6-5.4s3.3-2.7,5.4-3.6
			c2.1-0.9,4.5-1.2,6.9-1.2s4.5,0.3,6.3,1.2c1.8,0.9,3.3,1.8,4.8,3l-1.5,2.1c0,0.3-0.3,0.3-0.3,0.3s-0.3,0.3-0.6,0.3
			c-0.3,0-0.3,0-0.6-0.3c-0.3,0-0.6-0.3-0.9-0.6c-0.3-0.3-0.6-0.3-1.2-0.6c-0.3-0.3-0.9-0.6-1.5-0.6c-0.6-0.3-1.2-0.3-2.1-0.6
			c-0.9,0-1.8-0.3-2.7-0.3c-1.8,0-3.6,0.3-5.1,0.9s-2.7,1.5-3.9,2.7c-1.2,1.2-1.8,2.4-2.4,4.2c-0.6,1.8-0.9,3.3-0.9,5.4
			c0,2.1,0.3,3.9,0.9,5.4s1.5,3,2.4,4.2c0.9,1.2,2.4,2.1,3.6,2.7c1.5,0.6,3,0.9,4.5,0.9c0.9,0,1.8,0,2.7-0.3c0.9,0,1.5-0.3,2.1-0.6
			s1.2-0.6,1.8-0.9c0.6-0.3,1.2-0.9,1.8-1.5C-125.1,330.6-124.8,330.3-124.5,330.3z"/>
		<path class="st2" d="M-2.1,320.7c0,2.4-0.3,4.8-1.2,6.9c-0.9,2.1-1.8,3.9-3.3,5.1c-1.5,1.5-3.3,2.7-5.4,3.3
			c-2.1,0.9-4.2,1.2-6.9,1.2h-12.6v-33.3h12.6c2.4,0,4.8,0.3,6.9,1.2c2.1,0.9,3.9,1.8,5.4,3.3s2.7,3.3,3.3,5.1
			C-2.7,315.9-2.1,318-2.1,320.7z M-6.9,320.7c0-2.1-0.3-3.9-0.9-5.4s-1.5-3-2.4-4.2c-0.9-1.2-2.4-2.1-3.9-2.7s-3-0.9-4.8-0.9H-27
			v25.8h8.1c1.8,0,3.6-0.3,4.8-0.9c1.5-0.6,2.7-1.5,3.9-2.4c0.9-1.2,1.8-2.4,2.4-4.2C-7.2,324.6-6.9,322.8-6.9,320.7z"/>
		<path class="st2" d="M51,303.9v3.6H34.8v11.1H48v3.6H34.8v11.4H51v3.6H30v-33.3H51z"/>
		<polygon class="st2" points="-363.6,337.2 -350.7,303.9 -345.9,303.9 -333,337.2 -337.5,337.2 -348.3,308.7 -356.1,329.4 
			-348.3,325.2 -346.2,327.6 -359.4,337.2 		"/>
		<polygon class="st2" points="-62.1,336.3 -75,303.3 -79.8,303.3 -93,336.3 -88.2,336.3 -77.7,307.8 -69.6,328.5 -77.7,324.6 
			-79.5,327 -66.3,336.3 		"/>
	</g>
	<g id="XMLID_2_">
		<g id="XMLID_19_">
			<g>
				<g>
					<defs>
						<path id="SVGID_1_" d="M-495,324.6c0,1.5-1.2,3-3,3h-84c-1.5,0-3-1.2-3-3v-22.2c0-1.5,1.2-3,3-3h84c1.5,0,3,1.2,3,3V324.6z"/>
					</defs>
					<clipPath id="SVGID_2_">
						<use xlink:href="#SVGID_1_"  style="overflow:visible;"/>
					</clipPath>
					<g id="XMLID_21_" class="st3">
						
							<rect id="XMLID_30_" x="-580.2" y="288.7" transform="matrix(0.8293 0.5588 -0.5588 0.8293 76.1804 375.7963)" class="st2" width="6.3" height="47.7"/>
						
							<rect id="XMLID_29_" x="-588" y="281.7" transform="matrix(0.8293 0.5588 -0.5588 0.8293 70.9177 379.0043)" class="st2" width="6.3" height="47.7"/>
						
							<rect id="XMLID_28_" x="-568.8" y="291.3" transform="matrix(0.8293 0.5588 -0.5588 0.8293 79.5225 369.8784)" class="st2" width="6.3" height="47.7"/>
						
							<rect id="XMLID_27_" x="-556" y="290.9" transform="matrix(0.8293 0.5588 -0.5588 0.8293 81.4863 362.6656)" class="st2" width="6.3" height="47.7"/>
						
							<rect id="XMLID_26_" x="-542.8" y="290.1" transform="matrix(0.8293 0.5588 -0.5588 0.8293 83.3106 355.1699)" class="st2" width="6.3" height="47.7"/>
						
							<rect id="XMLID_25_" x="-531.2" y="291.5" transform="matrix(0.8293 0.5588 -0.5588 0.8293 86.0543 348.9242)" class="st2" width="6.3" height="47.7"/>
						
							<rect id="XMLID_24_" x="-519.2" y="292.1" transform="matrix(0.8293 0.5588 -0.5588 0.8293 88.4975 342.2915)" class="st2" width="6.3" height="47.7"/>
						
							<rect id="XMLID_23_" x="-508.3" y="295" transform="matrix(0.8293 0.5588 -0.5588 0.8293 91.9639 336.7169)" class="st2" width="6.3" height="47.7"/>
						
							<rect id="XMLID_22_" x="-498.5" y="298.4" transform="matrix(0.8293 0.5588 -0.5588 0.8293 95.5144 331.7787)" class="st2" width="6.3" height="47.7"/>
					</g>
				</g>
			</g>
		</g>
		<g id="XMLID_16_">
			<path id="XMLID_18_" class="st2" d="M-568.5,296.7c0,0.9-0.6,1.5-1.5,1.5h-5.7c-0.9,0-1.5-0.6-1.5-1.5v-1.8
				c-0.3-0.9,0.6-1.5,1.5-1.5h5.4c0.9,0,1.5,0.6,1.5,1.5L-568.5,296.7L-568.5,296.7z"/>
			<rect id="XMLID_17_" x="-577.5" y="295.2" class="st2" width="5.4" height="3"/>
		</g>
		<g id="XMLID_13_">
			<path id="XMLID_15_" class="st2" d="M-511.2,296.7c0,0.9,0.6,1.5,1.5,1.5h5.4c0.9,0,1.5-0.6,1.5-1.5v-1.8c0-0.9-0.6-1.5-1.5-1.5
				h-5.4c-0.9,0-1.5,0.6-1.5,1.5V296.7z"/>
			<rect id="XMLID_14_" x="-507.9" y="295.2" class="st2" width="5.4" height="3"/>
		</g>
		<g id="XMLID_8_">
			<g id="XMLID_10_">
				<path id="XMLID_12_" class="st2" d="M-568.5,330.9c0-0.9-0.6-1.5-1.5-1.5h-5.7c-0.9,0-1.5,0.6-1.5,1.5v1.8
					c0,0.9,0.6,1.5,1.5,1.5h5.4c0.9,0,1.5-0.6,1.5-1.5L-568.5,330.9L-568.5,330.9z"/>
				<rect id="XMLID_11_" x="-577.5" y="329.4" class="st2" width="5.4" height="3"/>
			</g>
			<path id="XMLID_9_" class="st2" d="M-568.5,331.5c0-0.9-0.6-1.8-1.5-1.8h-5.7c-0.9,0-1.5,0.6-1.5,1.8v15c0,0.9,0.6,1.8,1.5,1.8
				h5.4c0.9,0,1.5-0.6,1.5-1.8L-568.5,331.5L-568.5,331.5z"/>
		</g>
		<g id="XMLID_3_">
			<g id="XMLID_5_">
				<path id="XMLID_7_" class="st2" d="M-511.2,330.9c0-0.9,0.6-1.5,1.5-1.5h5.4c0.9,0,1.5,0.6,1.5,1.5v1.8c0,0.9-0.6,1.5-1.5,1.5
					h-5.4c-0.9,0-1.5-0.6-1.5-1.5V330.9z"/>
				<rect id="XMLID_6_" x="-507.9" y="329.4" class="st2" width="5.4" height="3"/>
			</g>
			<path id="XMLID_4_" class="st2" d="M-511.2,331.5c0-0.9,0.6-1.8,1.5-1.8h5.4c0.9,0,1.5,0.6,1.5,1.8v15c0,0.9-0.6,1.8-1.5,1.8
				h-5.4c-0.9,0-1.5-0.6-1.5-1.8V331.5z"/>
		</g>
	</g>
</g>
</svg>
